<?xml version="1.0" encoding="utf-8"?>
<!-- Generator: Adobe Illustrator 25.2.1, SVG Export Plug-In . SVG Version: 6.00 Build 0)  -->
<svg version="1.1" id="Шар_1" xmlns="http://www.w3.org/2000/svg" xmlns:xlink="http://www.w3.org/1999/xlink" x="0px" y="0px"
	 viewBox="0 0 242.65 153.01" style="enable-background:new 0 0 242.65 153.01;" xml:space="preserve">
<g>
	<path d="M168.2,54.52c1.66-0.48,3.17-0.92,4.83-1.4c-0.9,1.04-1.81,1.84-3.21,2.26c-5.43,1.64-11.03,2.69-16.77,3.29
		c-13.46,1.4-26.97,1.65-40.51,0.94c-7.22-0.38-14.43-0.81-21.45-2.27c-5.79-1.21-11.57-2.51-16.76-5.01
		c-1.68-0.81-3.22-1.8-4.73-2.83c4.99,1.76,9.8,3.82,15.29,4.99C121.75,62.19,168.2,54.52,168.2,54.52z"/>
	<path d="M177.42,63.17c2.94,8.52,5.81,16.86,8.82,25.59c0.68-1.87,1.29-3.39,1.78-4.95c1.54-4.91,2.67-9.89,2.93-15.07
		c0.18-3.59-0.84-5.23-5.2-6.53c2.83-1.89,5.51-3.67,8.32-5.54c0.89,6.24,0.8,12.22-0.28,18.18c-1.35,7.49-5.67,15.5-9.31,21.32
		c-2.24,3.39-4.03,4.71-4.67,7c-0.18-0.48-0.32-0.84-0.46-1.2c0.37-13.8-3.04-21.61-7.1-32.4c-0.65-1.73-1.47-3.4-2.33-5.04
		c-1.26-2.39-3.36-3.95-5.93-5.37c2.21,0,4.14-0.11,6.06,0.03c2.35,0.17,4.68,0.51,7.02,0.83c1.25,0.17,2.3-0.18,3.31-0.9
		c2.53-1.47,2.42-1.58,3.59-2.04"/>
	<path d="M58.49,66.4c-0.58,0.94-1.16,1.87-1.73,2.8c-0.09-0.01-0.19-0.03-0.28-0.04c0-0.54-0.03-1.08,0-1.62
		c0.17-2.93-0.94-5.3-3.01-7.33c-1.26-1.23-2.41-2.57-3.53-3.99c5.83,2.33,11.84,3.71,18.07,4.34c-0.14,0.05-0.28,0.09-0.42,0.14
		c-1.61,0.59-3.23,1.18-4.84,1.77c-0.74,0.27-1.02,0.76-1,1.58c0.04,3.13-0.01,6.25,0.03,9.38c0.01,1.2-0.38,2.15-1.29,2.92
		c-0.4,0.34-0.73,0.78-1.02,1.25c0.62-0.5,1.25-1.01,2.05-1.65c0.09,0.75,0.22,1.29,0.22,1.84c0.02,5.71,0.03,11.43,0.04,17.14
		c0,0.29,0,0.58,0,0.89c5.6,0.73,11.11,1.54,16.58-0.39c-1.89,2.04-3.81,4-6.23,5.31c-0.72,0.39-1.72,0.41-2.58,0.35
		c-2.13-0.14-4.26-0.43-6.39-0.65c-4.88-0.5-9.49,0.55-13.94,2.5c-0.17,0.08-0.35,0.14-0.64,0.09c0.23-0.25,0.44-0.53,0.69-0.76
		c1.6-1.46,3.23-2.88,4.8-4.38c2.43-2.32,2.42-2.34,2.42-5.72c0-7.07-0.01-14.13,0.02-21.2c0-0.47,0.2-1.01,0.47-1.4
		C57.62,68.58,58.3,67.62,58.49,66.4z"/>
	<path d="M121.34,106.98c1.46-1.74,3.1-3.11,5.22-3.88c-0.61-0.54-0.5-1.08,0.23-1.33c0.07-0.02,0.14-0.05,0.21-0.06
		c0.49-0.05,0.98-0.1,1.47-0.15c0.02,0.06,0.05,0.12,0.03,0.13c-0.64,0.74-1.11,1.54-1.46,2.48c-0.28,0.77-1.06,1.35-1.63,2.03
		c0.82-0.17,1.59-0.47,2.12-1.25c0.46-0.7,0.95-1.38,1.41-2.07c0.52-0.78,1.21-1.13,2.18-1.1c4.71,0.15,9.38,0.64,13.97,1.71
		c2.8,0.65,5.55,1.47,8.17,2.69c0.05-0.05,0.1-0.1,0.16-0.15c-1.08-1.16-2.17-2.32-3.34-3.58c1.44,0.47,2.85,0.82,4.17,1.39
		c2.82,1.22,5.62,2.49,8.38,3.84c3.5,1.72,7.1,2.76,11.05,2.13c-1.2,0.66-2.5,0.96-3.85,1.02c-4.8,0.22-9.4-0.81-13.91-2.31
		c-2.99-0.99-5.9-2.25-8.92-3.08c-2.84-0.77-5.78-1.13-8.68-1.67c-0.52-0.1-0.92,0.06-1.34,0.41c-2.15,1.79-4.66,2.91-7.27,3.85
		c-2.34,0.84-4.51,2-6.26,3.8c-0.78,0.81-1.44,1.73-2.21,2.67c-0.45-0.59-0.91-1.23-1.42-1.84c-2.06-2.46-4.76-3.93-7.74-4.95
		c-2.47-0.85-4.74-2.02-6.77-3.68c-0.27-0.22-0.77-0.25-1.15-0.21c-5.21,0.47-10.16,1.94-15.05,3.79
		c-4.99,1.88-10.11,3.28-15.52,3.26c-1.66-0.01-3.27-0.23-4.75-1.09c0.52,0.05,1.04,0.12,1.57,0.16c3.22,0.26,6.17-0.72,9.04-2.05
		c2.92-1.36,5.81-2.78,8.76-4.08c1.26-0.56,2.63-0.87,4.05-1.32c-1.12,1.24-2.14,2.36-3.15,3.48c0.04,0.05,0.07,0.09,0.11,0.14
		c0.13-0.03,0.26-0.05,0.38-0.1c4.63-1.91,9.47-3,14.42-3.58c2.54-0.3,5.09-0.49,7.65-0.66c0.43-0.03,1.02,0.16,1.3,0.47
		c0.71,0.77,1.32,1.64,1.9,2.51c0.6,0.91,1.63,1.5,2.66,1.32c-1.34-0.59-2.1-1.51-2.32-2.9c-0.05-0.31-0.44-0.55-0.67-0.84
		c-0.18-0.23-0.34-0.46-0.61-0.84c1.03,0.28,2.05-0.03,2.77,0.91c-0.25,0.22-0.46,0.4-0.72,0.63
		C118.16,103.83,119.8,105.3,121.34,106.98z M121.32,109.86c-2.16-2.17-4.95-3.09-7.67-4.17c-1.41-0.56-2.8-1.21-4.12-1.96
		c-0.59-0.34-1.05-0.47-1.71-0.18c0.99,1.08,2.25,1.63,3.53,2.12c3.57,1.34,7.2,2.55,9.95,5.4c1.65-1.64,3.52-2.8,5.59-3.64
		c1.75-0.71,3.54-1.36,5.26-2.13c0.96-0.43,1.84-1.06,2.75-1.6c-0.04-0.11-0.09-0.21-0.13-0.32c-0.44,0.06-0.91,0.01-1.3,0.18
		c-1.84,0.82-3.61,1.78-5.47,2.54C125.63,107.06,123.24,107.96,121.32,109.86z"/>
	<path d="M141.39,84.87c0.34-4.05-0.58-7.36-5.05-8.6c0.05-0.07,0.11-0.14,0.16-0.21c0.9-0.12,1.81-0.27,2.71-0.37
		c3.08-0.34,6.16-0.74,9.27-0.38c3.9,0.45,6.97,2.21,8.26,6.05c2.05,6.11-1.5,11.6-7.63,12.69c-1.68,0.3-3.43,0.27-5.14,0.3
		c-1.65,0.03-3.3-0.06-4.94-0.09c-0.12,0-0.23-0.02-0.56-0.06c0.56-0.53,1-0.94,1.43-1.35c0.8-0.76,1.28-1.68,1.35-2.79
		c0.08-1.35-0.06-2.75,0.26-4.04c0.32-1.28,1.1-2.44,1.67-3.66c0.02-0.04,0-0.09-0.03-0.37c-0.57,1.06-1.05,1.95-1.52,2.85
		C141.55,84.84,141.47,84.86,141.39,84.87z M144.72,87.9c-0.05,0.02-0.09,0.04-0.14,0.06c0.16,0.51,0.3,1.03,0.47,1.54
		c0.11,0.33,0.23,0.65,0.39,0.96c0.56,1.12,1.24,1.44,2.47,1.18c3-0.65,4.9-2.78,5.16-6.01c0.45-5.68-3.57-8.22-8.77-7.82
		c0.43,1.17,1.16,2.35,1.27,3.6c0.26,2.82,0.21,5.66,0.29,8.5c-0.06,0.01-0.13,0.03-0.19,0.04
		C145.34,89.25,145.03,88.57,144.72,87.9z"/>
	<path d="M171.6,76.73c-0.44,1.16-0.86,2.28-1.26,3.31c-1.01-0.31-1.97-0.67-2.95-0.9c-0.97-0.23-1.98-0.32-2.99-0.48
		c0,1.35-0.02,2.6,0.02,3.84c0.01,0.2,0.25,0.48,0.45,0.59c1.97,1.04,3.99,1.35,6.08,0.32c0.06-0.03,0.13-0.06,0.2-0.08
		c0.02,0,0.04,0.02,0.13,0.06c-0.62,1.45-1.55,2.65-2.82,3.56c-0.14,0.1-0.45,0.05-0.65-0.02c-1.11-0.37-2.21-0.77-3.42-1.2
		c0,2.29,0,4.37,0,6.56c2.02,0.25,4.02,0.94,6.13,0.74c1.1-0.1,1.97-0.69,2.76-1.63c0,1.86,1.2,3.63,1.2,5.44
		c-5.12-1.26-11.46-1.87-16.79-1.94c0.71-0.66,1.34-1.16,1.84-1.77c0.29-0.34,0.51-0.85,0.51-1.29c0.04-2.59,0.02-5.17,0-7.76
		c0-0.55,0.14-0.95,0.5-1.39c0.46-0.57,0.76-1.27,1.12-1.92c-0.07-0.04-0.14-0.08-0.21-0.12c-0.39,0.59-0.78,1.17-1.17,1.76
		c-0.08-0.01-0.16-0.03-0.24-0.04c0-0.74-0.08-1.5,0.02-2.23c0.23-1.8-0.71-2.87-2.16-3.66c-0.43-0.23-0.85-0.47-1.46-0.8
		C161.65,75.42,166.56,76.47,171.6,76.73z"/>
	<path d="M91.59,98.11c-3.8,0.2-6.87-2.14-10.51-2.78c0.43-0.49,0.77-0.89,1.12-1.29c0.36-0.42,0.42-0.89,0.16-1.37
		c-0.21-0.38-0.42-0.81-0.75-1.08c-1.91-1.61-4.22-2.22-6.89-2.6c0.57,1.25,1.05,2.32,1.55,3.42c-1.99-0.22-3.87-0.43-5.76-0.64
		c0-0.02-0.02-0.06-0.01-0.07c2.43-1.97,3.39-4.83,4.52-7.57c1.69-4.09,3.28-8.22,4.92-12.34c0.04-0.11,0.1-0.21,0.22-0.46
		c0.15,0.35,0.25,0.58,0.34,0.82c1.98,5.33,3.53,10.8,5,16.28c0.38,1.42,0.85,2.82,1.2,4.26c0.53,2.19,1.92,3.67,3.78,4.79
		C90.87,97.71,91.23,97.91,91.59,98.11z M75.63,87.36c1.83,0.31,3.66,0.63,5.6,0.96c-0.8-3.03-1.58-6-2.36-8.97
		c-0.06,0.01-0.12,0.03-0.18,0.04C77.66,82.06,76.64,84.72,75.63,87.36z"/>
	<path d="M96.14,75.07c2.91,0,5.82,0,8.73,0c0.01,0.14,0.02,0.22,0.01,0.23c-1.4,0.78-1.78,1.98-1.73,3.53
		c0.09,3.03,0.09,6.06,0,9.08c-0.09,2.88-1.03,5.44-3.33,7.37c-2.33,1.94-5.67,2.4-8.08,1.06c-1.91-1.06-2.83-3.16-2.18-4.97
		c0.33-0.91,1.19-1.52,2.14-1.53c1.29-0.01,1.98,0.84,1.71,2.13c-0.28,1.35,0.32,2.09,1.71,2.13c1.34,0.04,2.36-0.52,2.74-1.8
		c0.37-1.23,0.61-2.54,0.65-3.83c0.09-3.32,0.01-6.65,0.05-9.97C98.59,76.74,97.55,75.83,96.14,75.07z"/>
	<path d="M122.06,103.44c0.99-0.53,1.96-1.04,2.92-1.55c0.05,0.08,0.11,0.15,0.16,0.23c-1.29,1.05-2.58,2.1-3.83,3.12
		c-1.19-0.98-2.45-2.02-3.72-3.06c1.15-0.02,1.96,0.71,2.92,1.25c-0.43-1.6-1.32-2.68-2.89-3.2c1.41-0.18,2.79-0.35,3.71,1.08
		c0.97-1.39,2.34-1.27,3.77-1.04C123.4,100.71,122.56,101.94,122.06,103.44z"/>
	<path d="M65.84,68.16c3.17,1.39,6.77,2.25,8.2,6.04C71.17,72.4,68.12,70.78,65.84,68.16z"/>
	<path d="M106.12,106.71c-2.14,0-4.32,0-6.5,0C101.31,105.11,104.44,105.13,106.12,106.71z"/>
	<path d="M142.96,106.68c-2.14,0-4.28,0-6.47,0C138.66,104.75,140.81,105.64,142.96,106.68z"/>
	<path d="M118.27,48.87c0.43-1.12-0.24-1.97-1.5-1.8c-0.74,0.1-1.96-1.05-1.9-1.83c0.14-1.76,0.75-3.33,2.19-4.41
		c1.15-0.86,2.43-1.57,3.75-2.23c-0.38,1.33-1.77,1.79-2.55,3.09c0.43-0.23,0.64-0.35,0.86-0.46c0.03,0.03,0.06,0.05,0.09,0.08
		c-0.98,1.18-1.96,2.35-2.93,3.53c0.05,0.06,0.09,0.12,0.14,0.17c0.99-0.7,1.98-1.4,3.24-2.28c0.45,2.92,0.88,5.67,1.31,8.42
		c-0.12,0.06-0.23,0.13-0.35,0.19C119.86,50.55,119.1,49.75,118.27,48.87z"/>
	<path d="M121.66,51.17c0.05-2.78,0.12-5.43,1.2-8.14c0.98,0.73,1.78,1.33,2.57,1.93c0.06-0.05,0.12-0.09,0.19-0.14
		c-0.55-0.75-1.14-1.48-1.65-2.26c-0.23-0.35-0.3-0.79-0.44-1.19c0.1-0.04,0.19-0.09,0.29-0.13c-0.84-0.83-1.69-1.66-2.53-2.49
		c0.08-0.07,0.15-0.15,0.23-0.22c2.52,1.3,5.03,2.62,5.79,5.73c0.38,1.54,0.11,2.12-1.3,2.7c-0.17,0.07-0.42,0.15-0.55,0.08
		c-0.67-0.38-1.15-0.14-1.39,0.49c-0.17,0.44-0.14,0.94-0.22,1.53C123.27,49.61,122.5,50.36,121.66,51.17z"/>
	<g>
		<path d="M134.85,86.3c-0.02,0.13-0.05,0.26-0.05,0.4c-0.01,4.33-0.01,8.66-0.01,12.99c0,0.09,0,0.18,0,0.29
			c-0.53-0.5-1.03-1.01-1.58-1.48c-2.14-1.83-4.58-2.99-7.36-3.48c-2.08-0.36-4.16-0.52-6.26-0.39c-2.88,0.18-5.63,0.84-8.1,2.41
			c-1.26,0.8-2.38,1.76-3.33,2.92c-0.05,0.06-0.14,0.09-0.22,0.14c0-0.12,0-0.23,0-0.35c0.02-0.55,0.05-1.1,0.07-1.66
			c0.07-3.22,1.03-6.14,3.04-8.66c0.83-1.04,1.8-1.97,2.77-2.88c1.86-1.75,3.99-3.16,6.03-4.66c1.63-1.2,3.25-2.41,4.8-3.7
			c1.33-1.11,2.36-2.47,2.73-4.22c0.25-1.2,0.15-2.36-0.38-3.51c0.69-0.21,1.02-0.74,1.25-1.42c-0.48,0.33-0.98,0.51-1.53,0.41
			c-0.26-0.05-0.51-0.17-0.74-0.31c-0.53-0.32-1.03-0.68-1.57-0.98c-0.2-0.11-0.27-0.21-0.25-0.42c0.04-0.55,0.1-1.11,0.09-1.66
			c-0.01-0.61-0.09-1.21-0.15-1.95c0.78,0.26,1.47,0.44,2.12,0.7c1.78,0.72,3.29,1.82,4.54,3.28c2.23,2.61,2.81,6.14,1.13,9.24
			c-0.66,1.22-1.58,2.22-2.62,3.13c-1.76,1.53-3.79,2.67-5.73,3.95c-2.15,1.43-4.26,2.91-6.15,4.69c-1.11,1.04-2.15,2.16-3.21,3.25
			c-0.15,0.16-0.27,0.36-0.4,0.54c0.77-0.32,1.51-0.66,2.28-0.94c1.18-0.43,2.41-0.67,3.67-0.82c1.75-0.22,3.51-0.29,5.28-0.26
			c0.46,0.01,0.73-0.18,0.89-0.58c0.09-0.23,0.18-0.46,0.33-0.7c0.07,0.48,0.14,0.96,0.21,1.42c0.27-0.39,0.75-0.34,1.17-0.42
			c1.84-0.34,3.54-1.02,4.97-2.22c0.75-0.63,1.41-1.38,2.11-2.08c0.04-0.04,0.12-0.05,0.17-0.08
			C134.85,86.25,134.85,86.27,134.85,86.3z"/>
		<path d="M121.47,52.25c0.19,0.14,0.36,0.31,0.57,0.41c0.54,0.27,0.97,0.65,1.29,1.15c0.16,0.25,0.35,0.48,0.5,0.68
			c-0.14,0.25-0.31,0.49-0.43,0.75c-0.38,0.9-1.09,1.41-2.01,1.7c0-0.22,0-0.43,0-0.65c0.82-0.23,1.47-0.65,1.58-1.57
			c0.06-0.49-0.53-1.13-1.24-1.33c0.07,0.07,0.13,0.16,0.22,0.21c0.5,0.31,0.72,0.86,0.55,1.42c-0.13,0.42-0.7,0.78-1.2,0.76
			c-0.59-0.03-1.14-0.8-1.01-1.41c0.03-0.14,0.03-0.29,0.05-0.49c-0.59,0.36-0.63,1.16-0.19,1.67c0.33,0.39,0.34,0.39,0.23,0.89
			c-0.82-0.37-0.92-1.31-1.47-1.88c0.26-0.38,0.5-0.8,0.81-1.16c0.23-0.26,0.55-0.44,0.83-0.64c0.25-0.18,0.5-0.34,0.75-0.52
			C121.38,52.25,121.43,52.25,121.47,52.25z"/>
		<path d="M118.58,64.25c0,1.29,0,2.54,0,3.68c-0.73,0.46-1.38,0.88-2.04,1.3c-0.61,0.39-1.21,0.36-1.85-0.08
			c0.11,0.6,0.28,1.09,0.88,1.3c-0.49,0.77-0.83,1.59-0.99,2.49c-0.35,1.94,0.65,3.63,2.53,4.22c0.06,0.02,0.12,0.05,0.23,0.08
			c-1.43,0.51-2.55,1.37-3.44,2.53c-0.89,1.16-1.41,2.45-1.52,3.91c-0.03,0.02-0.06,0.03-0.09,0.05c-0.47-0.73-0.97-1.45-1.42-2.2
			c-0.86-1.44-1.45-3-1.72-4.66c-0.47-2.93,0.09-5.63,1.93-8.01c1.77-2.28,4.1-3.73,6.86-4.51c0.14-0.04,0.29-0.07,0.44-0.09
			C118.44,64.24,118.51,64.25,118.58,64.25z"/>
		<path d="M121.38,71.48c-1.12,2.07-2.98,2.89-5.09,3.29c0-0.56,0-1.16,0-1.79c1.02,0.06,1.99-0.09,2.91-0.52
			c0.92-0.42,1.62-1.1,2.19-1.97c0.97,1.79,2.62,2.36,4.56,2.52c-0.16,0.52-0.32,1.03-0.46,1.5
			C123.68,74.1,122.28,73.19,121.38,71.48z"/>
		<path d="M121.4,68.19c0.65,0.8,1.52,1.21,2.39,1.61c0.07,0.03,0.15,0.06,0.22,0.09c1,0.4,1.24,0.64,1.66,1.71
			c-1.67-0.37-3.17-1.03-4.29-2.36c-1.85,1.65-2.4,1.93-4.68,2.41c0.34-0.48,0.67-0.94,1.01-1.39c0.06-0.08,0.16-0.14,0.25-0.17
			c1.23-0.36,2.32-0.97,3.28-1.81C121.29,68.25,121.34,68.22,121.4,68.19z"/>
		<path d="M120.07,74.62c0.45-0.62,0.9-1.24,1.32-1.82c0.37,0.55,0.79,1.16,1.23,1.82c-0.4,0.53-0.85,1.12-1.29,1.69
			C120.91,75.74,120.49,75.18,120.07,74.62z"/>
		<path d="M119.75,80.02c0-1.41,0-2.75,0-4.1c0.03-0.02,0.05-0.03,0.08-0.05c0.43,0.67,0.9,1.33,1.28,2.03
			c0.14,0.25,0.07,0.63,0.07,0.94c0,0.07-0.07,0.15-0.13,0.2C120.64,79.36,120.22,79.67,119.75,80.02z"/>
		<path d="M122.33,61.43c-0.74,0.51-1.43,0.97-2.16,1.47c-0.03-0.48-0.06-0.89-0.07-1.29c0-0.08,0.06-0.18,0.12-0.23L122.33,61.43z"
			/>
		<path d="M122.62,63.13c-0.35-0.07-0.59-0.46-1.06-0.29c0.37,0.27,0.67,0.49,1.03,0.75c-0.41,0.29-0.77,0.55-1.13,0.8
			c-0.04,0.03-0.12,0.03-0.16,0.01c-0.41-0.26-0.82-0.53-1.3-0.84c0.89-0.55,1.74-1.07,2.62-1.61
			C122.62,62.37,122.62,62.74,122.62,63.13z"/>
		<path d="M123.01,89.29c-0.46,0-0.86,0-1.25,0c0-0.53,0-1.08,0-1.62c0-0.04,0.06-0.09,0.1-0.13c0.37-0.28,0.74-0.55,1.14-0.85
			C123.01,87.57,123.01,88.41,123.01,89.29z"/>
		<path d="M121.72,64.99c-0.05,0.42,0.45,0.42,0.58,0.8c-0.69,0.48-1.41,0.97-2.22,1.52c0-0.47,0-0.87,0-1.26
			c0-0.03,0.02-0.07,0.04-0.09C120.67,65.64,121.2,65.32,121.72,64.99L121.72,64.99z"/>
		<path d="M123.03,75.88c0,0.49,0.02,0.92-0.01,1.36c-0.01,0.16-0.14,0.33-0.27,0.44c-0.3,0.26-0.63,0.49-0.95,0.73
			C121.55,77.84,121.93,77.23,123.03,75.88z"/>
		<path d="M122.64,66.24c0,0.55,0,1.05,0,1.56c-0.35-0.2-0.69-0.39-1.03-0.57c-0.05-0.03-0.16,0.01-0.22,0.05
			c-0.42,0.25-0.84,0.51-1.3,0.71C120.85,67.29,121.74,66.79,122.64,66.24z"/>
		<path d="M121.12,88.25c0,0.42,0,0.74,0,1.08c-0.43,0.06-0.84,0.11-1.26,0.16c-0.02-0.02-0.03-0.05-0.05-0.07
			C120.23,89.05,120.65,88.68,121.12,88.25z"/>
		<path d="M121.73,65c0.28-0.22,0.57-0.44,0.9-0.69c0,0.38,0,0.67,0,0.96C122.33,65.18,122.03,65.08,121.73,65
			C121.72,64.99,121.73,65,121.73,65z"/>
		<path d="M120.12,64.33c0.23,0.18,0.45,0.35,0.71,0.55c-0.24,0.16-0.45,0.31-0.71,0.49C120.12,65.01,120.12,64.68,120.12,64.33z"/>
	</g>
</g>
</svg>
